/* XPM */
static char *schoollibrary[] = {
/* columns rows colors chars-per-pixel */
"32 32 243 2 ",
"   c #B0133A983C7F",
".  c #B7AA3181320B",
"X  c #DDD91DA81AF3",
"o  c #E5DC1C3218B5",
"O  c #ECC21C2C18CA",
"+  c #F2BB1DD319E6",
"@  c #D3EC20CD1E70",
"#  c #FB5A23BC1F9C",
"$  c #CAA824EC23B2",
"%  c #C0A62A7A29D5",
"&  c #D1A42A0A27F4",
"*  c #D63B32BE2FB6",
"=  c #FEBA26D02212",
"-  c #FFFF2A1E256C",
";  c #FFFF2E6D2910",
":  c #FFFF32D92D22",
">  c #FFFF36FB3117",
",  c #FFFF3C2D35B3",
"<  c #FFFF42763B68",
"1  c #9DE455F5572A",
"2  c #A96C46FA4A31",
"3  c #A4B5559F5AA9",
"4  c #979372F07637",
"5  c #9C8A720D7C29",
"6  c #A0EE63B46B29",
"7  c #FF204BD34390",
"8  c #FFFF547B4B79",
"9  c #FFFF5C55524F",
"0  c #FFFF604455D8",
"q  c #FFFF648059B5",
"w  c #FFF469895E2A",
"e  c #C6E062186176",
"r  c #CAFE70FF6D4D",
"t  c #D21D7C3073F4",
"y  c #EF046CBD6131",
"u  c #FFFF6D4D61A4",
"i  c #FFFF71DA6594",
"p  c #FFFF75E1692E",
"a  c #FFFF7ABB6D4F",
"s  c #FFFF7DB0701E",
"d  c #DC3193DB35AD",
"f  c #D3E492C13D7D",
"g  c #ED469A352E49",
"h  c #E27595A03200",
"j  c #EDD89BAF30C7",
"k  c #F24F9ED83204",
"l  c #F6A2A1F7349C",
"z  c #FF1AAA123C9B",
"x  c #BC2E878950CB",
"c  c #BB5587F45CE5",
"v  c #BCA78AE76206",
"b  c #C02687B06E5A",
"n  c #BDD89059648A",
"m  c #CE2591C742C2",
"M  c #C6B1925E4D3A",
"N  c #CD4F954C4BB2",
"B  c #D37B8C5E5D99",
"V  c #CD7E9AAC5843",
"C  c #EE01A3C34387",
"Z  c #FFFFAE4844F8",
"A  c #FFFFB1174BAD",
"S  c #FFB3B42B5426",
"D  c #FF6EB85E5EC5",
"F  c #D3088F1A62AA",
"G  c #D56E918F6500",
"H  c #D6E695336A1C",
"J  c #CD2B827F784A",
"K  c #D80C858478E7",
"L  c #DE7B8CC07FD1",
"P  c #C19A995872CB",
"I  c #C56090F777FA",
"U  c #C4149D9A7ACD",
"Y  c #CB5D9F977FB3",
"T  c #D84F99967080",
"R  c #DA0A9DD1766A",
"E  c #E5298C4E7E71",
"W  c #EE738AE97C4B",
"Q  c #FFFF823A7405",
"!  c #FC6687407888",
"~  c #F56D890B7A1F",
"^  c #CEF1A11E65B5",
"/  c #CD4AA4126E58",
"(  c #D12CA7447373",
")  c #DB3CABD770AA",
"_  c #DC29A2A17D01",
"`  c #FF7CBA7D63AD",
"'  c #FE95BD266B7F",
"]  c #FE1BC18176BA",
"[  c #FE77C4397CD5",
"{  c #440346FDBE8E",
"}  c #58465956B1AE",
"|  c #27492A20C387",
" . c #29C72D30DD77",
".. c #2DF3316BD452",
"X. c #388C3AE8D0F7",
"o. c #24FF2932E4ED",
"O. c #20A92591ECB3",
"+. c #207425EBF39D",
"@. c #22AD290CF739",
"#. c #262F2D18FC26",
"$. c #2CC534C8FFFF",
"%. c #33A43C98FFFF",
"&. c #3EB3478DE656",
"*. c #39E643BDFFFF",
"=. c #430A451FCD61",
"-. c #4FAE514ACA89",
";. c #47C74E4ED57C",
":. c #5EFB602BC92A",
">. c #706D713AC943",
",. c #41C84D49FFFF",
"<. c #45965136FFFF",
"1. c #488C54FCFFFF",
"2. c #4D9A5AD2FFFF",
"3. c #51AC5F72FFFF",
"4. c #55F364A4FFFF",
"5. c #5B0E6AADFE22",
"6. c #5F5B7031F99A",
"7. c #643F753EFFFF",
"8. c #6AFA7D39FFFF",
"9. c #7C6B8FC6E82E",
"0. c #6F8C8298FFFF",
"q. c #728285D5FFFF",
"w. c #7575898EFFFF",
"e. c #78788CB3FFFF",
"r. c #7CE39238FFFF",
"t. c #9CC881418E3D",
"y. c #9D3A8F369EC6",
"u. c #BD5596CD89B6",
"i. c #876686D3A7EF",
"p. c #9EB69C6BAEC7",
"a. c #A4DA9DDCA5DF",
"s. c #B003A5F3A822",
"d. c #A946A1C5AC15",
"f. c #B566B345B6F7",
"g. c #D56B8E6182BC",
"h. c #CC2C92C38C28",
"j. c #CBA098948F45",
"k. c #CA459F6697DA",
"l. c #DD98A700832B",
"z. c #DF25AA7187FE",
"x. c #C9EAA6799F94",
"c. c #D6D8ADDB92A4",
"v. c #CE63B3CC936E",
"b. c #CDE8B7C499DD",
"n. c #D8D5B3FF9369",
"m. c #DCC6B5019BA9",
"M. c #E090AE3C8D74",
"N. c #E1ACB9AD9F75",
"B. c #CC10ADBFA9D1",
"V. c #CDBABAB8A1DC",
"C. c #D725B919A155",
"Z. c #CC73B653B1E4",
"A. c #C7BDBB48B031",
"S. c #CD71BE5CBB79",
"D. c #E69FBEBAA4D3",
"F. c #FDE9C7068464",
"G. c #FDDECA0A8BEA",
"H. c #FE54CD7793A0",
"J. c #FE06CF8998B7",
"K. c #FE4CD1D99E26",
"L. c #D059C092AB33",
"P. c #CC8EC268BADD",
"I. c #E02EC614B384",
"U. c #DE81C8B0B376",
"Y. c #D7A9C92ABD9C",
"T. c #E7EAC0D4A71D",
"R. c #E900C106A696",
"E. c #E929C49EACD6",
"W. c #FE69D3F2A32D",
"Q. c #FEE4D758AAD1",
"!. c #FE4ED934AFE0",
"~. c #E274CA4DBA54",
"^. c #EF14D70BC01E",
"/. c #FEA8DB93B53D",
"(. c #FEF5DF0EBD15",
"). c #80D281ADCA26",
"_. c #83E489D1C961",
"`. c #8DF694F2CA36",
"'. c #922F92DACBC7",
"]. c #83809352D3EF",
"[. c #98FAAC36D2CB",
"{. c #A270A2C4CF1B",
"}. c #A5A8B685D04B",
"|. c #A5D8BA7BCA62",
" X c #B725B78DCFB8",
".X c #B2A8B2E7D43B",
"XX c #B826B9D1D3B3",
"oX c #BB7FBE8DD126",
"OX c #817C979AFFFF",
"+X c #86769D47FFFF",
"@X c #8BFCA3C1FFFF",
"#X c #9252AB28FFFF",
"$X c #970FB07EFFFF",
"%X c #9BC2B677FFFF",
"&X c #9D72B850FFFF",
"*X c #A03ABB1AED20",
"=X c #A1C8BDE8FFFF",
"-X c #BCA3C323CB56",
";X c #ABA7C759E6A4",
":X c #AB6BC703E8A2",
">X c #ADC3CD65F551",
",X c #A6FCC4C1FFFF",
"<X c #ACDBCCD7FE58",
"1X c #C764C341C139",
"2X c #CC07C776C3A8",
"3X c #CECFC887C309",
"4X c #CE70CC62CBB1",
"5X c #D565C4C3C30C",
"6X c #D52FCA3EC81A",
"7X c #DBE3CE6EC0BD",
"8X c #D18ACE9ACBCE",
"9X c #D9EAD0F7CF1E",
"0X c #C2B3C2E8DAD9",
"qX c #D595D426D3B1",
"wX c #DDAEDC7EDBEF",
"eX c #E6F2D5EAC5AF",
"rX c #EBCBD632C521",
"tX c #EDD5D921C5CC",
"yX c #E0CDD992CF55",
"uX c #F668DB88C0B3",
"iX c #FD49DF79C0A5",
"pX c #F186D9B7CA0F",
"aX c #E321DD16DBE5",
"sX c #FD97E0C2C2A9",
"dX c #E0FBE060E017",
"fX c #F52CE470D8EA",
"gX c #F6D6E8CBDF3F",
"hX c #D209D241E24D",
"jX c #E00BE02FE1BA",
"kX c #DF91DF8FE883",
"lX c #E53EE415E410",
"zX c #EBB1E7D5E2AB",
"xX c #E5CAE62AEB5E",
"cX c #ED69EC78EC50",
"vX c #F7BFEABBE23B",
"bX c #F941EE8DE79C",
"nX c #F0ABEF2DED6E",
"mX c #FB25F376EE6F",
"MX c #F2FCF355F347",
"NX c #FBFAF5C1F1BA",
"BX c #FB1BF8DBF6E7",
"VX c #F864FA70FC65",
"CX c #FFE4FFE4FFDF",
/* pixels */
"CXCXCXCXCXCXCXCXCXCXCXCXCXCXCXCXCXCXCXCXCXCXCXCXCXCXCXCXCXCXCXCX",
"CXCXCXCXCXCXCXCXCXCXCXCXCXCXCXCXCXCXCXCXCXCXCXCXCXCXCXCXCXCXCXCX",
"CXCXbXvXvXBXCXCXCXCXCXCXCXCXCXCXCXCXCXCXCXCXCXCXCXCXCXCXCXCXCXCX",
"CXNXz.H R pXCXCXCXCXCXCXCXCXCXCXCXCXCXCXCXCXCXCXCXCXCXCXCXCXCXCX",
"CXNX_ B G pXCXCXCXCXCXCXCXCXCXCXCXCXCXCXCXCXCXCXCXCXCXCXCXCXCXCX",
"CXNX_ B G pXCXCXCXCXCXCXCXCXCXCXCXCXCXCXCXCXCXCXCXCXCXCXCXCXCXCX",
"CXNX_ B F rXMXnXdX8XjXCXCXBXlX-X-XBXCXVXcX6XcXCXCXCXCXCXCXCXCXCX",
"CXNX_ B F P ^ ( n.U.1XxXXX`.].*X|.wXY.h.t K S.CXCXCXCXCXCXCXCXCX",
"CXNX_ B G x k ` H.sXd.{ &.5.r.=X;X1 * < w ! k.MXCXCXCXCXCXCXCXCX",
"CXNX_ B H n j D G.(.s.| %.3.0.#X<X6 + < 0 Q g.aXCXCXCXCXCXCXCXCX",
"CXNX_ B G U g S F./.P.} @.<.7.+X<Xp.@ : 8 p W Z.CXCXCXCXCXCXCXCX",
"CXNX_ B G C.f A [ Q.eXi.o.*.5.r.&X;X  - < w ! j.MXCXCXCXCXCXCXCX",
"CXNX_ B G I.M Z ] W.tXf.=.$.2.0.#X<X5 O , 9 s L 9XCXCXCXCXCXCXCX",
"CXNX_ B G ~.V z ' K.^.2X).+.<.6.r.<X|.$ : 8 i ~ B.CXCXCXCXCXCXCX",
"CXNX_ B G tXl.k ` H.uX3X X .*.4.e.%X:X2 # < q ! h.cXCXCXCXCXCXCX",
"CXNX_ B G pXb.j D H.iXP.jX-.#.2.8.@X<Xt.o > 9 a E 5XCXCXCXCXCXCX",
"CXNX_ B F pXL.g S F./.P.nX'.O.,.6.OX,X}.% ; 7 u ~ x.BXCXCXCXCXCX",
"CXNX_ B G pXyXd S F.!.Y.wXhX..$.4.w.$X>X3 + < q Q g.lXCXCXCXCXCX",
"CXNX_ B G pXcXm Z ] Q.eX8XVX:.#.1.8.+X<Xy.X > 8 a E S.CXCXCXCXCX",
"CXNX_ B G pXMXN z ] K.^.4XCX{.O.*.6.r.&X;X. - 7 u ! k.MXCXCXCXCX",
"CXNX_ B G pXVX/ l ` J.uX2XBXkXX.$.4.q.$X<X6 + < 9 Q L aXCXCXCXCX",
"CXNX_ B G pXCXv.k D H.sXP.MXBX>.@.<.7.+X<Xp.@ : 8 i W Z.CXCXCXCX",
"CXNX_ B F pXCXV.g S F.(.P.cXCX.Xo.*.4.r.%X:X  = 7 w ! j.MXCXCXCX",
"CXNX_ B F pXCX7Xh S F.!.Y.lXCXxX=.$.2.0.#X<X4 O , 9 s L 9XCXCXCX",
"CXNX_ B G pXCXzXf A ] Q.rX8XCXBX).+.,.6.9.[.a.& ; 7 y J S.CXCXCX",
"CXNX_ B G pXCXcXM C ) v.A.qXCXCX0X..;._.oXxXMXe * r B.dXVXCXCXCX",
"CXNXR B B M.D.N.v c Y c.m.D.D.D.m.4 u.m.R.R.R.I b n.T.T.D.D.E.bX",
"CXmXR B B B B B F B B B B B B B B B B B B B B B F B B B B B H fX",
"CXmXT B B B B B B B B F B B B B B B B B B B B F B F B B B B H fX",
"CXmXl.R R R R R R R R R R R R R R R R R R R R R R R R R R R l.gX",
"CXCXNXmXmXmXNXNXNXmXNXNXNXNXNXmXNXNXNXNXmXNXNXNXNXmXNXmXNXmXNXCX",
"CXCXCXCXCXCXCXCXCXCXCXCXCXCXCXCXCXCXCXCXCXCXCXCXCXCXCXCXCXCXCXCX"
};
